<svg width="66" height="9" viewBox="0 0 66 9" fill="none" xmlns="http://www.w3.org/2000/svg">
<path d="M0.202637 8.66665V0.60936H2.62369C3.31542 0.60936 3.93329 0.769869 4.47731 1.09082C5.02493 1.40808 5.45186 1.86184 5.75809 2.45216C6.06432 3.03873 6.21744 3.70648 6.21744 4.4554V4.82614C6.21744 5.57506 6.06613 6.24096 5.7635 6.82385C5.46447 7.40681 5.04114 7.85873 4.49352 8.17967C3.9459 8.50062 3.32803 8.66297 2.6399 8.66665H0.202637ZM1.82388 1.95406V7.333H2.60748C3.24156 7.333 3.72614 7.12086 4.06119 6.69664C4.39625 6.27234 4.56738 5.66544 4.57459 4.87594V4.44987C4.57459 3.63083 4.40886 3.01104 4.07741 2.5905C3.74595 2.16621 3.26138 1.95406 2.62369 1.95406H1.82388ZM10.1895 6.66894L11.9728 0.60936H13.7778L11.0379 8.66665H9.34645L6.61737 0.60936H8.41691L10.1895 6.66894ZM14.5236 8.66665V0.60936H17.2797C18.2344 0.60936 18.9586 0.797493 19.4522 1.17383C19.9458 1.54641 20.1926 2.09431 20.1926 2.81738C20.1926 3.21213 20.0934 3.56077 19.8953 3.8633C19.6971 4.16208 19.4216 4.38159 19.0685 4.52177C19.472 4.62511 19.789 4.83351 20.0196 5.14709C20.2538 5.46074 20.3709 5.84437 20.3709 6.29813C20.3709 7.0729 20.1295 7.65947 19.6467 8.05791C19.164 8.45635 18.4758 8.65929 17.5823 8.66665H14.5236ZM16.1448 5.15821V7.333H17.5337C17.9156 7.333 18.2128 7.24078 18.4254 7.05633C18.6416 6.86812 18.7496 6.60993 18.7496 6.28155C18.7496 5.54368 18.3768 5.16926 17.631 5.15821H16.1448ZM16.1448 3.98499H17.3446C18.1624 3.97026 18.5713 3.63635 18.5713 2.98341C18.5713 2.61812 18.4668 2.35618 18.2579 2.19759C18.0525 2.03524 17.7265 1.95406 17.2797 1.95406H16.1448V3.98499ZM26.3262 5.37404H23.2134V8.66665H21.5922V0.60936H26.7154V1.95406H23.2134V4.03479H26.3262V5.37404ZM34.119 4.82061C34.119 5.61381 33.9821 6.30925 33.7083 6.90687C33.4345 7.50456 33.0418 7.96569 32.5302 8.29039C32.0222 8.61501 31.4386 8.77729 30.7793 8.77729C30.1271 8.77729 29.5453 8.61686 29.0337 8.29591C28.5221 7.97489 28.1258 7.51745 27.8448 6.92352C27.5638 6.32582 27.4215 5.63966 27.4179 4.86488V4.46645C27.4179 3.67326 27.5566 2.97597 27.834 2.37467C28.115 1.76961 28.5095 1.30664 29.0175 0.985627C29.5291 0.660998 30.1127 0.498718 30.7684 0.498718C31.4241 0.498718 32.006 0.660998 32.514 0.985627C33.0255 1.30664 33.4201 1.76961 33.6975 2.37467C33.9785 2.97597 34.119 3.67141 34.119 4.46092V4.82061ZM32.4762 4.4554C32.4762 3.61057 32.3284 2.96861 32.033 2.52958C31.7376 2.09056 31.3161 1.87104 30.7684 1.87104C30.2244 1.87104 29.8047 2.08871 29.5093 2.52406C29.2138 2.95571 29.0643 3.59024 29.0607 4.4277V4.82061C29.0607 5.64334 29.2084 6.28155 29.5039 6.73531C29.7993 7.18914 30.2244 7.41602 30.7793 7.41602C31.3232 7.41602 31.7412 7.19835 32.033 6.76301C32.3248 6.32398 32.4726 5.68577 32.4762 4.84831V4.4554ZM41.6956 8.66665H40.0743L36.9184 3.3652V8.66665H35.2971V0.60936H36.9184L40.0798 5.92186V0.60936H41.6956V8.66665ZM43.1115 8.66665V0.60936H45.5325C46.2243 0.60936 46.8421 0.769869 47.3862 1.09082C47.9337 1.40808 48.3607 1.86184 48.6669 2.45216C48.9731 3.03873 49.1263 3.70648 49.1263 4.4554V4.82614C49.1263 5.57506 48.9749 6.24096 48.6723 6.82385C48.3733 7.40681 47.95 7.85873 47.4024 8.17967C46.8547 8.50062 46.2369 8.66297 45.5487 8.66665H43.1115ZM44.7327 1.95406V7.333H45.5163C46.1504 7.333 46.635 7.12086 46.97 6.69664C47.3051 6.27234 47.4762 5.66544 47.4834 4.87594V4.44987C47.4834 3.63083 47.3177 3.01104 46.9862 2.5905C46.6548 2.16621 46.1702 1.95406 45.5325 1.95406H44.7327ZM49.6289 7.88083C49.6289 7.62625 49.7117 7.4197 49.8774 7.26104C50.0468 7.10244 50.2575 7.02311 50.5097 7.02311C50.7655 7.02311 50.9763 7.10244 51.142 7.26104C51.3113 7.4197 51.396 7.62625 51.396 7.88083C51.396 8.13172 51.3131 8.3365 51.1474 8.49509C50.9817 8.65008 50.7691 8.7275 50.5097 8.7275C50.2539 8.7275 50.0432 8.65008 49.8774 8.49509C49.7117 8.3365 49.6289 8.13172 49.6289 7.88083ZM55.7842 5.71708H54.4926V8.66665H52.8713V0.60936H55.795C56.7245 0.60936 57.4414 0.821506 57.9458 1.24573C58.4502 1.67002 58.7024 2.26955 58.7024 3.04426C58.7024 3.59392 58.5853 4.05328 58.3511 4.42218C58.1206 4.78739 57.7693 5.07887 57.2973 5.29654L58.9996 8.58916V8.66665H57.2595L55.7842 5.71708ZM54.4926 4.37238H55.8004C56.2075 4.37238 56.5227 4.26727 56.7461 4.05696C56.9695 3.84297 57.0812 3.54965 57.0812 3.17707C57.0812 2.79705 56.9749 2.49827 56.7623 2.2806C56.5534 2.06293 56.2309 1.95406 55.795 1.95406H54.4926V4.37238ZM65.8953 0.60936V5.91634C65.8953 6.79807 65.6251 7.49535 65.0847 8.00811C64.5479 8.52095 63.8129 8.77729 62.8798 8.77729C61.9611 8.77729 61.2315 8.52832 60.6911 8.03029C60.1507 7.53219 59.8751 6.84787 59.8643 5.97718V0.60936H61.4855V5.92738C61.4855 6.45495 61.6081 6.8405 61.853 7.08395C62.1016 7.32379 62.4439 7.44364 62.8798 7.44364C63.7913 7.44364 64.2543 6.95298 64.2687 5.97166V0.60936H65.8953Z" fill="#252525"/>
</svg>
