<svg width="86" height="12" viewBox="0 0 86 12" fill="none" xmlns="http://www.w3.org/2000/svg">
<path d="M0.3125 10.7382H1.94706V8.75002H6.80092V10.7302H8.43617V7.36154H7.5556V0.507593H2.22998L2.0024 3.99292C1.86474 6.15008 1.41304 6.95099 0.858275 7.36154H0.3125V10.7382ZM2.82348 7.36154C3.22883 6.68133 3.53112 5.62286 3.63765 3.99292L3.76285 1.94438H5.92104V7.36154H2.82348ZM12.1667 8.87079C13.9984 8.87079 15.1383 7.58693 15.1383 5.68329C15.1383 3.76753 13.9984 2.4877 12.1667 2.4877C10.3357 2.4877 9.1957 3.76753 9.1957 5.68329C9.1957 7.58693 10.3357 8.87079 12.1667 8.87079ZM12.175 7.54266C11.3297 7.54266 10.8973 6.74975 10.8973 5.67117C10.8973 4.59259 11.3297 3.79572 12.175 3.79572C13.0044 3.79572 13.4367 4.59259 13.4367 5.67117C13.4367 6.74975 13.0044 7.54266 12.175 7.54266ZM21.2456 0.298309C20.9509 0.511617 20.4799 0.507593 19.8352 0.507593C19.6816 0.507593 19.5204 0.503563 19.3475 0.507593C17.1506 0.527717 16.003 1.93633 16.003 4.91453V5.42163C16.003 7.6674 17.1347 8.87079 18.9622 8.87079C20.7863 8.87079 21.9138 7.6674 21.9138 5.77983C21.9138 3.96877 20.8804 2.88614 19.3399 2.88614C18.3687 2.88614 17.7164 3.31674 17.3546 4.07339H17.2958C17.4376 2.55612 18.0035 1.93231 19.4029 1.91621C20.6404 1.89608 21.2422 1.85181 21.7568 1.41716L21.2456 0.298309ZM18.9705 7.54266C18.1806 7.54266 17.7047 6.89064 17.7047 5.83622C17.713 4.78172 18.184 4.18608 18.9622 4.18608C19.737 4.18608 20.2122 4.78172 20.2122 5.83622C20.2122 6.89468 19.737 7.54266 18.9705 7.54266ZM23.0254 11.0682H24.6994V7.75998H24.7506C24.9823 8.27508 25.4894 8.8506 26.4647 8.8506C27.8399 8.8506 28.9127 7.73582 28.9127 5.66714C28.9127 3.54214 27.7928 2.4877 26.4682 2.4877C25.4582 2.4877 24.9747 3.10346 24.7506 3.60652H24.6759V2.5682H23.0254V11.0682ZM24.6641 5.65913C24.6641 4.55633 25.12 3.85203 25.9335 3.85203C26.7628 3.85203 27.2035 4.58856 27.2035 5.65913C27.2035 6.73771 26.7552 7.48628 25.9335 7.48628C25.1283 7.48628 24.6641 6.76187 24.6641 5.65913ZM32.7567 8.87079C34.5884 8.87079 35.7284 7.58693 35.7284 5.68329C35.7284 3.76753 34.5884 2.4877 32.7567 2.4877C30.925 2.4877 29.7857 3.76753 29.7857 5.68329C29.7857 7.58693 30.925 8.87079 32.7567 8.87079ZM32.7643 7.54266C31.9197 7.54266 31.4874 6.74975 31.4874 5.67117C31.4874 4.59259 31.9197 3.79572 32.7643 3.79572C33.5937 3.79572 34.026 4.59259 34.026 5.67117C34.026 6.74975 33.5937 7.54266 32.7643 7.54266ZM39.3786 8.75002H42.3496C43.8589 8.75002 44.7001 8.11818 44.7001 7.06369C44.7001 6.25073 44.0713 5.60679 42.986 5.52632C43.8506 5.37339 44.366 4.90653 44.366 4.23843C44.366 3.16785 43.4425 2.5682 41.9525 2.5682H39.3786V8.75002ZM40.9385 7.46616V6.11792H42.3496C42.813 6.11792 43.0967 6.38758 43.0967 6.82625C43.0967 7.22469 42.813 7.46616 42.3496 7.46616H40.9385ZM40.9385 5.11173V3.88022H41.9525C42.4713 3.88022 42.7895 4.10965 42.7895 4.48797C42.7895 4.87834 42.4872 5.11173 41.9878 5.11173H40.9385ZM48.4825 8.87079C50.3142 8.87079 51.4541 7.58693 51.4541 5.68329C51.4541 3.76753 50.3142 2.4877 48.4825 2.4877C46.6515 2.4877 45.5115 3.76753 45.5115 5.68329C45.5115 7.58693 46.6515 8.87079 48.4825 8.87079ZM48.4908 7.54266C47.6455 7.54266 47.2131 6.74975 47.2131 5.67117C47.2131 4.59259 47.6455 3.79572 48.4908 3.79572C49.3201 3.79572 49.7525 4.59259 49.7525 5.67117C49.7525 6.74975 49.3201 7.54266 48.4908 7.54266ZM60.1236 0.298309C59.8282 0.511617 59.3571 0.507593 58.7125 0.507593C58.5589 0.507593 58.3977 0.503563 58.2248 0.507593C56.0278 0.527717 54.8803 1.93633 54.8803 4.91453V5.42163C54.8803 7.6674 56.0119 8.87079 57.8395 8.87079C59.6636 8.87079 60.7911 7.6674 60.7911 5.77983C60.7911 3.96877 59.7577 2.88614 58.2172 2.88614C57.2467 2.88614 56.5937 3.31674 56.2326 4.07339H56.1731C56.3149 2.55612 56.8808 1.93231 58.2801 1.91621C59.5183 1.89608 60.1194 1.85181 60.6341 1.41716L60.1236 0.298309ZM57.8478 7.54266C57.0578 7.54266 56.5819 6.89064 56.5819 5.83622C56.5902 4.78172 57.0613 4.18608 57.8395 4.18608C58.6142 4.18608 59.0894 4.78172 59.0894 5.83622C59.0894 6.89468 58.6142 7.54266 57.8478 7.54266ZM61.5492 8.75002H62.0521C63.3332 8.75002 64.0132 7.88068 64.1155 5.80399L64.2096 3.91642H65.6996V8.75002H67.2947V2.5682H62.7044L62.6062 5.30497C62.5474 6.87052 62.3115 7.38966 61.7415 7.38966H61.5409L61.5492 8.75002ZM70.3148 8.86675C71.2065 8.86675 71.7847 8.46831 72.0794 7.89279H72.1265V8.75002H73.714V4.58048C73.714 3.1075 72.4958 2.4877 71.1518 2.4877C69.7054 2.4877 68.7543 3.19604 68.5226 4.32293L70.0706 4.45171C70.1848 4.04123 70.5424 3.73934 71.1435 3.73934C71.7135 3.73934 72.04 4.03315 72.04 4.54025V4.5644C72.04 4.96284 71.627 5.01519 70.5777 5.11981C69.3831 5.2325 68.3102 5.64298 68.3102 7.02345C68.3102 8.24696 69.1631 8.86675 70.3148 8.86675ZM70.7942 7.68348C70.2788 7.68348 69.9095 7.43797 69.9095 6.96714C69.9095 6.48413 70.2989 6.24669 70.8883 6.16219C71.2542 6.10984 71.8512 6.0213 72.0518 5.88445V6.54051C72.0518 7.18849 71.5288 7.68348 70.7942 7.68348ZM79.1475 2.5682H75.013V8.75002H76.64V3.91642H79.1475V2.5682ZM82.6802 8.87079C84.5119 8.87079 85.6512 7.58693 85.6512 5.68329C85.6512 3.76753 84.5119 2.4877 82.6802 2.4877C80.8485 2.4877 79.7092 3.76753 79.7092 5.68329C79.7092 7.58693 80.8485 8.87079 82.6802 8.87079ZM82.6878 7.54266C81.8432 7.54266 81.4109 6.74975 81.4109 5.67117C81.4109 4.59259 81.8432 3.79572 82.6878 3.79572C83.5172 3.79572 83.9495 4.59259 83.9495 5.67117C83.9495 6.74975 83.5172 7.54266 82.6878 7.54266Z" fill="#252525"/>
</svg>
