<svg width="48" height="43" viewBox="0 0 48 43" fill="none" xmlns="http://www.w3.org/2000/svg">
<path d="M34.5001 0C30.4401 0 26.5434 1.89 24.0001 4.87667C21.4567 1.89 17.5601 0 13.5001 0C6.31342 0 0.666748 5.64667 0.666748 12.8333C0.666748 21.6533 8.60008 28.84 20.6168 39.76L24.0001 42.8167L27.3834 39.7367C39.4001 28.84 47.3334 21.6533 47.3334 12.8333C47.3334 5.64667 41.6868 0 34.5001 0ZM24.2334 36.2833L24.0001 36.5167L23.7667 36.2833C12.6601 26.2267 5.33342 19.5767 5.33342 12.8333C5.33342 8.16667 8.83342 4.66667 13.5001 4.66667C17.0934 4.66667 20.5934 6.97667 21.8301 10.1733H26.1934C27.4067 6.97667 30.9067 4.66667 34.5001 4.66667C39.1668 4.66667 42.6668 8.16667 42.6668 12.8333C42.6668 19.5767 35.3401 26.2267 24.2334 36.2833Z" fill="#FFD879"/>
</svg>
