<svg width="105" height="9" viewBox="0 0 105 9" fill="none" xmlns="http://www.w3.org/2000/svg">
<path d="M0.780029 6.75001H3.04406C4.34105 6.75001 5.048 6.00145 5.048 4.92684C5.048 3.85229 4.34105 3.16408 3.04406 3.16408H1.51119V1.23224H4.42337V0.568176H0.780029V6.75001ZM1.51119 6.09799V3.82814H3.04406C3.86929 3.82814 4.3293 4.32319 4.3293 4.91479C4.3293 5.51851 3.86929 6.09799 3.04406 6.09799H1.51119ZM5.75633 6.75001H5.99221C6.99453 6.75001 7.28298 5.95314 7.348 4.43185L7.41856 2.77768H9.08147V6.75001H9.77735V2.11362H6.75864L6.67633 4.16622C6.61684 5.72371 6.46397 6.08595 5.92165 6.08595H5.75633V6.75001ZM12.3859 6.85867C13.1758 6.85867 13.5888 6.42404 13.7299 6.12215H13.7652V6.75001H14.4611V3.69533C14.4611 2.22235 13.3647 2.05327 12.7864 2.05327C12.1029 2.05327 11.3248 2.29474 10.9706 3.13992L11.6312 3.38139C11.7848 3.04331 12.1472 2.68113 12.8106 2.68113C13.4497 2.68113 13.7652 3.02822 13.7652 3.62286V3.64702C13.7652 3.99113 13.4235 3.96095 12.5982 4.06961C11.7578 4.18131 10.8412 4.37143 10.8412 5.43393C10.8412 6.33953 11.5254 6.85867 12.3859 6.85867ZM12.4917 6.21876C11.9376 6.21876 11.5371 5.96518 11.5371 5.4702C11.5371 4.92683 12.0199 4.75783 12.5629 4.68536C12.8576 4.64917 13.6476 4.56466 13.7652 4.41974V5.07176C13.7652 5.65132 13.3169 6.21876 12.4917 6.21876ZM18.525 2.11362H15.7304V6.75001H16.4263V2.77768H18.525V2.11362ZM21.1452 6.84663C22.371 6.84663 23.1962 5.89279 23.1962 4.456C23.1962 3.00711 22.371 2.05327 21.1452 2.05327C19.9188 2.05327 19.0936 3.00711 19.0936 4.456C19.0936 5.89279 19.9188 6.84663 21.1452 6.84663ZM21.1452 6.20672C20.2135 6.20672 19.7888 5.38569 19.7888 4.456C19.7888 3.52632 20.2135 2.69318 21.1452 2.69318C22.0763 2.69318 22.501 3.52632 22.501 4.456C22.501 5.38569 22.0763 6.20672 21.1452 6.20672ZM23.6666 2.77768H25.1642V6.75001H25.8601V2.77768H27.3452V2.11362H23.6666V2.77768ZM28.36 6.75001H30.494C31.414 6.75001 31.968 6.21876 31.968 5.50639C31.968 4.77893 31.4285 4.38659 30.9304 4.31108C31.4402 4.20242 31.8034 3.90967 31.8034 3.3452C31.8034 2.60562 31.1843 2.11362 30.211 2.11362H28.36V6.75001ZM29.0206 6.09799V4.67332H30.494C30.9719 4.67332 31.2604 4.96608 31.2604 5.44604C31.2604 5.8505 30.9719 6.09799 30.494 6.09799H29.0206ZM29.0206 4.05757V2.76564H30.211C30.7686 2.76564 31.1075 3.00406 31.1075 3.3935C31.1075 3.80703 30.7686 4.05757 30.211 4.05757H29.0206ZM34.8608 6.84663C36.0866 6.84663 36.9125 5.89279 36.9125 4.456C36.9125 3.00711 36.0866 2.05327 34.8608 2.05327C33.6344 2.05327 32.8092 3.00711 32.8092 4.456C32.8092 5.89279 33.6344 6.84663 34.8608 6.84663ZM34.8608 6.20672C33.9291 6.20672 33.5044 5.38569 33.5044 4.456C33.5044 3.52632 33.9291 2.69318 34.8608 2.69318C35.7919 2.69318 36.2166 3.52632 36.2166 4.456C36.2166 5.38569 35.7919 6.20672 34.8608 6.20672ZM37.9743 8.48862H38.6695V6.03764H38.729C38.8819 6.29123 39.1765 6.84663 40.0495 6.84663C41.1812 6.84663 41.9711 5.91694 41.9711 4.44389C41.9711 2.98296 41.1812 2.05327 40.0377 2.05327C39.153 2.05327 38.8819 2.60867 38.729 2.85014H38.646V2.11362H37.9743V8.48862ZM38.6577 4.43185C38.6577 3.3935 39.106 2.69318 39.9547 2.69318C40.8395 2.69318 41.2752 3.45385 41.2752 4.43185C41.2752 5.42189 40.8277 6.20672 39.9547 6.20672C39.1177 6.20672 38.6577 5.48224 38.6577 4.43185ZM43.7281 5.69955V2.11362H43.0322V6.75001H43.8457L46.0157 3.16408V6.75001H46.7109V2.11362H45.9091L43.7281 5.69955ZM47.3694 2.77768H48.867V6.75001H49.5622V2.77768H51.048V2.11362H47.3694V2.77768ZM53.7257 6.84663C54.6457 6.84663 55.318 6.37573 55.5297 5.67547L54.858 5.48224C54.681 5.96518 54.2715 6.20672 53.7257 6.20672C52.9094 6.20672 52.3464 5.6664 52.3139 4.67332H55.601V4.37143C55.601 2.64487 54.5986 2.05327 53.6551 2.05327C52.4287 2.05327 51.6152 3.04331 51.6152 4.46805C51.6152 5.89279 52.4169 6.84663 53.7257 6.84663ZM52.3139 4.05757C52.3609 3.33613 52.8596 2.69318 53.6551 2.69318C54.4098 2.69318 54.8933 3.27273 54.8933 4.05757H52.3139ZM56.2581 6.75001H56.494C57.4963 6.75001 57.7847 5.95314 57.8498 4.43185L57.9203 2.77768H59.5832V6.75001H60.2784V2.11362H57.2604L57.1774 4.16622C57.1186 5.72371 56.9657 6.08595 56.4234 6.08595H56.2581V6.75001ZM62.2506 3.79194V2.11362H61.5554V6.75001H63.4535C64.5146 6.75001 65.0922 6.08595 65.0922 5.25288C65.0922 4.4077 64.5146 3.79194 63.4535 3.79194H62.2506ZM62.2506 4.456H63.4535C64.0048 4.456 64.397 4.80011 64.397 5.28908C64.397 5.75693 64.0048 6.08595 63.4535 6.08595H62.2506V4.456ZM66.8471 2.11362H66.1512V6.75001H66.8471V4.76987H69.0164V6.75001H69.7122V2.11362H69.0164V4.1058H66.8471V2.11362ZM71.6781 3.79194V2.11362H70.9823V6.75001H72.881C73.9422 6.75001 74.5198 6.08595 74.5198 5.25288C74.5198 4.4077 73.9422 3.79194 72.881 3.79194H71.6781ZM75.2392 6.75001H75.935V2.11362H75.2392V6.75001ZM71.6781 4.456H72.881C73.4324 4.456 73.8239 4.80011 73.8239 5.28908C73.8239 5.75693 73.4324 6.08595 72.881 6.08595H71.6781V4.456ZM77.9037 5.69955V2.11362H77.2078V6.75001H78.022L80.1912 3.16408V6.75001H80.8871V2.11362H80.0854L77.9037 5.69955ZM79.6254 0.568176C79.6254 0.88211 79.4601 1.15985 79.0478 1.15985C78.6349 1.15985 78.4813 0.88211 78.4813 0.568176H77.8331C77.8331 1.2202 78.3049 1.67898 79.0478 1.67898C79.8018 1.67898 80.2736 1.2202 80.2736 0.568176H79.6254ZM86.3352 8.33172H87.0304V6.84663C88.2568 6.84663 89.082 5.89279 89.082 4.456C89.082 3.00711 88.2568 2.05327 87.0304 2.05327V0.568176H86.3352V2.05327C85.1088 2.05327 84.2835 3.00711 84.2835 4.456C84.2835 5.89279 85.1088 6.84663 86.3352 6.84663V8.33172ZM87.0304 6.20672V2.69318C87.9621 2.69318 88.3868 3.52632 88.3868 4.456C88.3868 5.38569 87.9621 6.20672 87.0304 6.20672ZM86.3352 6.20672C85.4034 6.20672 84.9787 5.38569 84.9787 4.456C84.9787 3.52632 85.4034 2.69318 86.3352 2.69318V6.20672ZM91.9852 6.84663C93.211 6.84663 94.0369 5.89279 94.0369 4.456C94.0369 3.00711 93.211 2.05327 91.9852 2.05327C90.7588 2.05327 89.9336 3.00711 89.9336 4.456C89.9336 5.89279 90.7588 6.84663 91.9852 6.84663ZM91.9852 6.20672C91.0535 6.20672 90.6288 5.38569 90.6288 4.456C90.6288 3.52632 91.0535 2.69318 91.9852 2.69318C92.9163 2.69318 93.341 3.52632 93.341 4.456C93.341 5.38569 92.9163 6.20672 91.9852 6.20672ZM95.7939 2.11362H95.0987V6.75001H95.7939V4.76987H97.9638V6.75001H98.659V2.11362H97.9638V4.1058H95.7939V2.11362ZM99.4462 8.07814H100.142V6.75001H103.491V8.07814H104.187V6.08595H103.491V2.11362H100.614L100.46 3.94891C100.351 5.24679 100.189 5.69353 99.8239 6.08595H99.4462V8.07814ZM100.614 6.08595C100.932 5.65734 101.047 4.91784 101.144 3.94891L101.262 2.77768H102.795V6.08595H100.614Z" fill="#555857"/>
</svg>
